<?xml version="1.0" encoding="UTF-8"?>
<svg id="Layer_1" data-name="Layer 1" xmlns="http://www.w3.org/2000/svg" viewBox="0 0 250 93">
  <defs>
    <style>
      .cls-1 {
        fill: #396caa;
      }

      .cls-1, .cls-2, .cls-3 {
        stroke-width: 0px;
      }

      .cls-2 {
        fill: #ffa600;
      }

      .cls-3 {
        fill: #019aff;
      }
    </style>
  </defs>
  <path class="cls-1" d="m95.57,8.51h-.12.12Z"/>
  <g>
    <rect class="cls-1" x="5" y="40.94" width="55.5" height="9.49"/>
    <rect class="cls-1" x="5" y="8.51" width="55.5" height="9.5"/>
    <path class="cls-1" d="m82.68,50.43l33.74,32.32h-12.84l-33.55-31.34v-10.48h25.43c6.33,0,11.46-5.14,11.46-11.47s-5.13-11.46-11.46-11.46h-25.43v-9.5h25.43s.07,0,.12,0c11.52.06,20.85,9.42,20.85,20.96,0,10.91-8.34,19.88-18.99,20.87-.65.06-1.3.09-1.97.09h-12.77Z"/>
    <rect class="cls-1" x="5" y="73.38" width="55.5" height="9.5"/>
  </g>
  <g>
    <path class="cls-3" d="m145.09,26.92v1.66h-8.24v4.7h7.68v1.66h-7.68v5.12h8.3v1.66h-10.27v-14.79h10.21Z"/>
    <path class="cls-3" d="m163.73,26.92v13.13h7.83v1.66h-9.8v-14.79h1.97Z"/>
    <path class="cls-3" d="m189.55,26.92v14.79h-1.97v-14.79h1.97Z"/>
    <path class="cls-3" d="m213.29,26.92l5.78,14.79h-2.17l-1.62-4.45h-6.25l-1.66,4.45h-2.01l5.76-14.79h2.17Zm1.37,8.68l-2.46-6.9h-.04l-2.51,6.9h5.01Z"/>
    <path class="cls-3" d="m242.14,28.94c-.66-.48-1.49-.71-2.52-.71-.41,0-.82.04-1.22.12s-.76.22-1.07.41-.56.45-.75.78-.28.73-.28,1.21c0,.46.13.83.4,1.11.27.28.63.51,1.08.69.45.18.96.33,1.52.44.57.12,1.14.25,1.73.38.59.14,1.16.3,1.73.49.57.19,1.07.44,1.52.76s.81.72,1.08,1.2c.27.48.4,1.09.4,1.82,0,.79-.18,1.46-.53,2.02-.35.56-.8,1.01-1.36,1.37-.55.35-1.17.61-1.85.77-.68.16-1.36.24-2.04.24-.83,0-1.61-.1-2.35-.31s-1.39-.52-1.95-.94c-.56-.42-1-.96-1.33-1.62-.32-.66-.49-1.43-.49-2.33h1.86c0,.62.12,1.16.36,1.6.24.45.56.82.95,1.11.39.29.85.5,1.38.64.52.14,1.06.21,1.62.21.44,0,.89-.04,1.34-.12s.85-.22,1.21-.42c.36-.2.65-.47.87-.82.22-.35.33-.79.33-1.33,0-.51-.13-.92-.4-1.24-.27-.32-.63-.58-1.08-.78-.45-.2-.96-.36-1.52-.49-.57-.12-1.14-.25-1.73-.38-.59-.13-1.16-.28-1.73-.46-.57-.17-1.07-.4-1.52-.68-.45-.28-.81-.65-1.08-1.1-.27-.45-.4-1.01-.4-1.69,0-.75.15-1.39.46-1.94.3-.55.71-.99,1.21-1.35.5-.35,1.08-.61,1.72-.79s1.3-.26,1.98-.26c.76,0,1.46.09,2.11.27.65.18,1.22.46,1.71.85.49.39.88.87,1.16,1.46.28.59.44,1.29.47,2.1h-1.86c-.11-1.06-.49-1.83-1.15-2.31Z"/>
  </g>
  <g>
    <path class="cls-2" d="m141.84,48.87c1.41,0,2.51.35,3.3,1.04.79.69,1.19,1.64,1.19,2.84,0,.9-.2,1.68-.61,2.36-.41.68-1.06,1.14-1.96,1.39v.04c.43.08.78.22,1.05.41.27.19.48.42.64.69.16.27.28.57.35.9.08.33.13.68.18,1.04.03.36.05.72.06,1.1.01.37.05.74.1,1.1.06.36.13.7.24,1.02.1.32.26.61.47.86h-2.2c-.14-.15-.23-.36-.28-.62-.05-.26-.08-.56-.09-.88s-.03-.67-.04-1.05c-.01-.37-.06-.74-.12-1.1-.06-.36-.12-.7-.21-1.03-.08-.32-.21-.61-.39-.85-.18-.24-.41-.43-.7-.58-.29-.15-.68-.22-1.16-.22h-4.8v6.32h-1.97v-14.79h6.96Zm.41,6.71c.41-.07.78-.2,1.09-.4s.56-.47.75-.81c.19-.34.28-.78.28-1.31,0-.75-.21-1.35-.62-1.82-.41-.47-1.08-.7-2.01-.7h-4.89v5.16h4.1c.46,0,.89-.03,1.3-.1Z"/>
    <path class="cls-2" d="m160.24,53.35c.3-.93.74-1.76,1.34-2.47.59-.72,1.33-1.29,2.22-1.72.88-.43,1.91-.64,3.09-.64s2.2.21,3.09.64c.88.43,1.62,1,2.22,1.72.59.72,1.04,1.54,1.34,2.47.3.93.44,1.9.44,2.91s-.15,1.98-.44,2.91c-.3.93-.74,1.76-1.34,2.48-.59.72-1.33,1.29-2.22,1.71-.88.42-1.91.63-3.09.63s-2.2-.21-3.09-.63c-.88-.42-1.62-.99-2.22-1.71-.59-.72-1.04-1.54-1.34-2.48s-.44-1.9-.44-2.91.15-1.98.44-2.91Zm1.81,5.12c.19.72.5,1.38.91,1.96.41.58.95,1.05,1.59,1.4.65.35,1.42.53,2.32.53s1.67-.18,2.32-.53c.65-.35,1.18-.82,1.59-1.4.41-.58.72-1.23.91-1.96.19-.72.29-1.46.29-2.21s-.1-1.48-.29-2.21c-.19-.72-.5-1.38-.91-1.96-.41-.58-.95-1.05-1.59-1.4-.65-.35-1.42-.53-2.32-.53s-1.67.18-2.32.53c-.65.35-1.18.82-1.59,1.4-.41.58-.72,1.23-.91,1.96s-.29,1.46-.29,2.21.1,1.48.29,2.21Z"/>
    <path class="cls-2" d="m194.03,63.66h-1.97v-6.05l-5.72-8.74h2.34l4.43,7.04,4.33-7.04h2.24l-5.65,8.74v6.05Z"/>
    <path class="cls-2" d="m217.55,48.87l5.78,14.79h-2.17l-1.62-4.45h-6.25l-1.66,4.45h-2.01l5.76-14.79h2.17Zm1.37,8.68l-2.46-6.9h-.04l-2.51,6.9h5.01Z"/>
    <path class="cls-2" d="m238.3,48.87v13.13h7.83v1.66h-9.8v-14.79h1.97Z"/>
  </g>
</svg>