<?xml version="1.0" encoding="UTF-8"?>
<svg id="Layer_1" data-name="Layer 1" xmlns="http://www.w3.org/2000/svg" viewBox="0 0 250 150">
  <defs>
    <style>
      .cls-1 {
        fill: #396caa;
      }

      .cls-1, .cls-2 {
        stroke-width: 0px;
      }

      .cls-2 {
        fill: #019aff;
      }
    </style>
  </defs>
  <path class="cls-1" d="m94.97,38.34h-.11.11Z"/>
  <g>
    <path class="cls-1" d="m82.45,79.06l32.77,31.39h-12.47l-33.61-31.39H7v-9.22h87.86c6.15,0,11.14-4.99,11.14-11.14s-4.98-11.14-11.14-11.14H7v-9.22h87.86s.07,0,.11,0c11.19.06,20.25,9.15,20.25,20.36,0,10.6-8.1,19.31-18.45,20.27-.63.06-1.27.09-1.91.09h-12.41Z"/>
    <rect class="cls-1" x="7" y="101.35" width="53.91" height="9.22"/>
  </g>
  <g>
    <path class="cls-2" d="m143.06,56.22v1.61h-8.01v4.57h7.46v1.61h-7.46v4.97h8.07v1.61h-9.98v-14.36h9.92Z"/>
    <path class="cls-2" d="m161.17,56.22v12.75h7.6v1.61h-9.51v-14.36h1.91Z"/>
    <path class="cls-2" d="m186.25,56.22v14.36h-1.91v-14.36h1.91Z"/>
    <path class="cls-2" d="m209.3,56.22l5.61,14.36h-2.11l-1.57-4.32h-6.07l-1.61,4.32h-1.95l5.59-14.36h2.11Zm1.33,8.43l-2.39-6.7h-.04l-2.43,6.7h4.87Z"/>
    <path class="cls-2" d="m237.33,58.18c-.64-.46-1.45-.69-2.44-.69-.4,0-.8.04-1.19.12s-.73.21-1.04.4-.54.44-.72.75-.27.71-.27,1.18c0,.44.13.8.39,1.08.26.27.61.5,1.05.67.44.17.93.32,1.48.43.55.11,1.11.24,1.68.37.57.13,1.13.29,1.68.47.55.18,1.04.43,1.48.73s.78.7,1.05,1.17c.26.47.39,1.06.39,1.77,0,.76-.17,1.42-.51,1.96-.34.54-.78.99-1.32,1.33-.54.34-1.14.59-1.8.74-.66.15-1.32.23-1.98.23-.8,0-1.57-.1-2.28-.3s-1.35-.51-1.89-.91c-.54-.41-.97-.93-1.29-1.57-.32-.64-.47-1.39-.47-2.26h1.81c0,.6.12,1.12.35,1.56.23.44.54.79.93,1.08.38.28.83.49,1.34.62.51.13,1.03.2,1.57.2.43,0,.86-.04,1.3-.12s.83-.22,1.18-.41c.35-.19.63-.46.84-.79.21-.34.32-.76.32-1.29,0-.5-.13-.9-.39-1.21-.26-.31-.61-.56-1.05-.75-.44-.19-.93-.35-1.48-.47-.55-.12-1.11-.24-1.68-.37-.57-.13-1.13-.27-1.68-.44-.55-.17-1.04-.39-1.48-.66-.44-.27-.78-.63-1.05-1.07-.26-.44-.39-.98-.39-1.64,0-.72.15-1.35.44-1.88.3-.53.69-.97,1.18-1.31.49-.34,1.05-.6,1.67-.76s1.26-.25,1.92-.25c.74,0,1.42.09,2.05.26.63.17,1.18.45,1.66.82.48.38.85.85,1.13,1.42.27.57.43,1.25.45,2.04h-1.81c-.11-1.03-.48-1.78-1.12-2.24Z"/>
  </g>
  <g>
    <path class="cls-2" d="m139.91,77.54c1.37,0,2.44.34,3.21,1.01.77.67,1.16,1.59,1.16,2.76,0,.87-.2,1.64-.59,2.29-.4.66-1.03,1.11-1.9,1.35v.04c.42.08.75.21,1.02.4.26.19.47.41.62.67.15.26.27.55.34.88.07.32.13.66.17,1.01.03.35.05.7.06,1.07.01.36.05.72.1,1.07.05.35.13.68.23,1,.1.32.25.59.45.83h-2.13c-.13-.15-.22-.35-.27-.6-.05-.25-.08-.54-.09-.85s-.03-.65-.04-1.02c-.01-.36-.05-.72-.12-1.07-.05-.35-.12-.68-.2-1-.08-.31-.21-.59-.38-.82-.17-.23-.4-.42-.68-.56-.28-.14-.66-.21-1.13-.21h-4.67v6.13h-1.91v-14.36h6.76Zm.4,6.52c.4-.07.75-.2,1.06-.39s.54-.46.72-.78c.18-.33.27-.75.27-1.28,0-.72-.2-1.31-.6-1.77-.4-.46-1.05-.68-1.95-.68h-4.75v5.01h3.98c.44,0,.87-.03,1.27-.1Z"/>
    <path class="cls-2" d="m157.78,81.89c.29-.91.72-1.71,1.3-2.4.58-.7,1.29-1.25,2.15-1.67.86-.42,1.86-.62,3-.62s2.14.21,3,.62c.86.42,1.58.97,2.15,1.67.58.7,1.01,1.5,1.3,2.4.29.91.43,1.85.43,2.83s-.14,1.92-.43,2.83c-.29.91-.72,1.71-1.3,2.4-.58.7-1.29,1.25-2.15,1.66-.86.41-1.86.61-3,.61s-2.14-.2-3-.61c-.86-.41-1.58-.96-2.15-1.66-.58-.7-1.01-1.5-1.3-2.4s-.43-1.85-.43-2.83.14-1.92.43-2.83Zm1.76,4.97c.19.7.48,1.34.89,1.9.4.56.92,1.02,1.55,1.36.63.34,1.38.51,2.25.51s1.62-.17,2.25-.51c.63-.34,1.15-.79,1.55-1.36.4-.56.7-1.2.89-1.9.19-.7.28-1.42.28-2.14s-.09-1.44-.28-2.14c-.19-.7-.48-1.34-.89-1.9-.4-.56-.92-1.02-1.55-1.36-.63-.34-1.38-.51-2.25-.51s-1.62.17-2.25.51c-.63.34-1.15.79-1.55,1.36-.4.56-.7,1.2-.89,1.9s-.28,1.42-.28,2.14.09,1.44.28,2.14Z"/>
    <path class="cls-2" d="m190.59,91.9h-1.91v-5.87l-5.55-8.49h2.27l4.3,6.84,4.2-6.84h2.17l-5.49,8.49v5.87Z"/>
    <path class="cls-2" d="m213.44,77.54l5.61,14.36h-2.11l-1.57-4.32h-6.07l-1.61,4.32h-1.95l5.59-14.36h2.11Zm1.33,8.43l-2.39-6.7h-.04l-2.43,6.7h4.87Z"/>
    <path class="cls-2" d="m233.6,77.54v12.75h7.6v1.61h-9.51v-14.36h1.91Z"/>
  </g>
</svg>